<svg width="370" height="102" viewBox="0 0 370 102" fill="none" xmlns="http://www.w3.org/2000/svg">
<path d="M227.565 26.4L231.165 37H235.815L224.315 3.3H219.065L207.615 37H212.115L215.615 26.4H227.565ZM216.515 23L219.815 13.25C220.465 11.2 221.015 9.15 221.515 7.15H221.615C222.115 9.1 222.615 11.1 223.365 13.3L226.665 23H216.515ZM260.295 12.8H255.895V27.65C255.895 28.45 255.745 29.25 255.495 29.9C254.695 31.85 252.645 33.9 249.695 33.9C245.695 33.9 244.295 30.8 244.295 26.2V12.8H239.895V26.95C239.895 35.45 244.445 37.55 248.245 37.55C252.545 37.55 255.095 35 256.245 33.05H256.345L256.595 37H260.495C260.345 35.1 260.295 32.9 260.295 30.4V12.8ZM268.584 7V12.8H264.834V16.15H268.584V29.35C268.584 32.2 269.034 34.35 270.284 35.65C271.334 36.85 272.984 37.5 275.034 37.5C276.734 37.5 278.084 37.25 278.934 36.9L278.734 33.6C278.184 33.75 277.334 33.9 276.184 33.9C273.734 33.9 272.884 32.2 272.884 29.2V16.15H279.184V12.8H272.884V5.85L268.584 7ZM294.093 12.25C287.393 12.25 282.093 17 282.093 25.1C282.093 32.75 287.143 37.55 293.693 37.55C299.543 37.55 305.743 33.65 305.743 24.7C305.743 17.3 301.043 12.25 294.093 12.25ZM293.993 15.55C299.193 15.55 301.243 20.75 301.243 24.85C301.243 30.3 298.093 34.25 293.893 34.25C289.593 34.25 286.543 30.25 286.543 24.95C286.543 20.35 288.793 15.55 293.993 15.55ZM177.355 97H181.605L179.505 63.3H173.955L167.955 79.6C166.455 83.85 165.255 87.55 164.405 90.95H164.255C163.405 87.45 162.255 83.75 160.855 79.6L155.105 63.3H149.555L147.205 97H151.355L152.255 82.55C152.555 77.5 152.805 71.85 152.905 67.65H153.005C153.955 71.65 155.305 76 156.905 80.75L162.355 96.8H165.655L171.605 80.45C173.305 75.8 174.705 71.6 175.855 67.65H176.005C175.955 71.85 176.255 77.5 176.505 82.2L177.355 97ZM205.833 97C205.533 95.35 205.433 93.3 205.433 91.2V82.15C205.433 77.3 203.633 72.25 196.233 72.25C193.183 72.25 190.283 73.1 188.283 74.4L189.283 77.3C190.983 76.2 193.333 75.5 195.583 75.5C200.533 75.5 201.083 79.1 201.083 81.1V81.6C191.733 81.55 186.533 84.75 186.533 90.6C186.533 94.1 189.033 97.55 193.933 97.55C197.383 97.55 199.983 95.85 201.333 93.95H201.483L201.833 97H205.833ZM201.183 88.85C201.183 89.3 201.083 89.8 200.933 90.25C200.233 92.3 198.233 94.3 195.083 94.3C192.833 94.3 190.933 92.95 190.933 90.1C190.933 85.4 196.383 84.55 201.183 84.65V88.85ZM216.954 97V72.8H212.554V97H216.954ZM214.754 63.25C213.154 63.25 212.004 64.45 212.004 66C212.004 67.5 213.104 68.7 214.654 68.7C216.404 68.7 217.504 67.5 217.454 66C217.454 64.45 216.404 63.25 214.754 63.25ZM224.273 97H228.673V82.45C228.673 81.7 228.773 80.95 228.973 80.4C229.723 77.95 231.973 75.9 234.873 75.9C239.023 75.9 240.473 79.15 240.473 83.05V97H244.873V82.55C244.873 74.25 239.673 72.25 236.323 72.25C232.323 72.25 229.523 74.5 228.323 76.8H228.223L227.973 72.8H224.073C224.223 74.8 224.273 76.85 224.273 79.35V97ZM252.812 67V72.8H249.062V76.15H252.812V89.35C252.812 92.2 253.262 94.35 254.512 95.65C255.562 96.85 257.212 97.5 259.262 97.5C260.962 97.5 262.312 97.25 263.162 96.9L262.962 93.6C262.412 93.75 261.562 93.9 260.412 93.9C257.962 93.9 257.112 92.2 257.112 89.2V76.15H263.412V72.8H257.112V65.85L252.812 67ZM285.765 97C285.465 95.35 285.365 93.3 285.365 91.2V82.15C285.365 77.3 283.565 72.25 276.165 72.25C273.115 72.25 270.215 73.1 268.215 74.4L269.215 77.3C270.915 76.2 273.265 75.5 275.515 75.5C280.465 75.5 281.015 79.1 281.015 81.1V81.6C271.665 81.55 266.465 84.75 266.465 90.6C266.465 94.1 268.965 97.55 273.865 97.55C277.315 97.55 279.915 95.85 281.265 93.95H281.415L281.765 97H285.765ZM281.115 88.85C281.115 89.3 281.015 89.8 280.865 90.25C280.165 92.3 278.165 94.3 275.015 94.3C272.765 94.3 270.865 92.95 270.865 90.1C270.865 85.4 276.315 84.55 281.115 84.65V88.85ZM296.886 97V72.8H292.486V97H296.886ZM294.686 63.25C293.086 63.25 291.936 64.45 291.936 66C291.936 67.5 293.036 68.7 294.586 68.7C296.336 68.7 297.436 67.5 297.386 66C297.386 64.45 296.336 63.25 294.686 63.25ZM304.205 97H308.605V82.45C308.605 81.7 308.705 80.95 308.905 80.4C309.655 77.95 311.905 75.9 314.805 75.9C318.955 75.9 320.405 79.15 320.405 83.05V97H324.805V82.55C324.805 74.25 319.605 72.25 316.255 72.25C312.255 72.25 309.455 74.5 308.255 76.8H308.155L307.905 72.8H304.005C304.155 74.8 304.205 76.85 304.205 79.35V97ZM351.389 85.7C351.439 85.25 351.539 84.55 351.539 83.65C351.539 79.2 349.439 72.25 341.539 72.25C334.489 72.25 330.189 78 330.189 85.3C330.189 92.6 334.639 97.5 342.089 97.5C345.939 97.5 348.589 96.7 350.139 96L349.389 92.85C347.739 93.55 345.839 94.1 342.689 94.1C338.289 94.1 334.489 91.65 334.389 85.7H351.389ZM334.439 82.55C334.789 79.5 336.739 75.4 341.189 75.4C346.139 75.4 347.339 79.75 347.289 82.55H334.439ZM356.988 97H361.338V84.1C361.338 83.35 361.438 82.65 361.538 82.05C362.138 78.75 364.338 76.4 367.438 76.4C368.038 76.4 368.488 76.45 368.938 76.55V72.4C368.538 72.3 368.188 72.25 367.688 72.25C364.738 72.25 362.088 74.3 360.988 77.55H360.788L360.638 72.8H356.788C356.938 75.05 356.988 77.5 356.988 80.35V97Z" fill="black"/>
<path d="M77.5675 67.5675L52.9729 42.9729C55.4054 36.7567 54.054 29.4594 48.9189 24.3243C43.5135 18.9189 35.4054 17.8378 28.9189 20.8108L40.5405 32.4324L32.4324 40.5405L20.5405 28.9189C17.2973 35.4054 18.6486 43.5135 24.054 48.9189C29.1892 54.054 36.4864 55.4054 42.7027 52.9729L67.2973 77.5675C68.3783 78.6486 70 78.6486 71.081 77.5675L77.2973 71.3513C78.6486 70.2702 78.6486 68.3783 77.5675 67.5675Z" fill="#D32F2F"/>
<circle cx="50" cy="50" r="49.5" stroke="#D32F2F"/>
</svg>
