<svg width="62" height="75" viewBox="0 0 62 75" fill="none" xmlns="http://www.w3.org/2000/svg">
<path fill-rule="evenodd" clip-rule="evenodd" d="M34.0784 6.52868C39.0607 0.035482 45.9786 0 45.9786 0C45.9786 0 47.0091 6.1029 42.0626 11.984C36.7846 18.2643 30.7808 17.2354 30.7808 17.2354C30.7808 17.2354 29.6517 12.2945 34.0784 6.51981V6.52868Z" fill="#ACACAC"/>
<path fill-rule="evenodd" clip-rule="evenodd" d="M31.4083 21.5198C33.9711 21.5198 38.7204 18.0337 44.9125 18.0337C55.5581 18.0337 59.7519 25.5381 59.7519 25.5381C59.7519 25.5381 51.5615 29.6807 51.5615 39.7487C51.5615 51.1029 61.7681 55.0148 61.7681 55.0148C61.7681 55.0148 54.6352 74.8936 44.9931 74.8936C40.5664 74.8936 37.1254 71.9397 32.4657 71.9397C27.7163 71.9397 22.9939 75 19.9203 75C11.1206 75 0 56.1413 0 40.9817C0 26.0704 9.40904 18.2466 18.2356 18.2466C23.9707 18.2466 28.4243 21.5198 31.4083 21.5198Z" fill="#ACACAC"/>
</svg>
