<svg width="82" height="75" viewBox="0 0 82 75" fill="none" xmlns="http://www.w3.org/2000/svg">
<path d="M2.96068 57.2548C2.11618 58.5713 1.16774 60.0989 0.362218 61.316C0.0156254 61.8758 -0.0873504 62.5433 0.0754235 63.175C0.238197 63.8067 0.653728 64.3521 1.2327 64.694L18.1227 74.6296C18.4162 74.8028 18.7429 74.9184 19.0836 74.9697C19.4243 75.021 19.7723 75.0069 20.1073 74.9283C20.4423 74.8497 20.7576 74.7081 21.0347 74.5119C21.3119 74.3156 21.5454 74.0685 21.7216 73.7851C22.3972 72.7046 23.2677 71.3012 24.2161 69.7984C30.9072 59.2419 37.6372 60.5335 49.772 66.0726L66.5192 73.6857C66.8331 73.8285 67.1738 73.9097 67.5212 73.9244C67.8685 73.939 68.2154 73.8869 68.5413 73.7711C68.8672 73.6553 69.1655 73.4782 69.4185 73.2502C69.6715 73.0222 69.874 72.7479 70.0141 72.4438L78.0563 55.0566C78.3294 54.4597 78.3463 53.7842 78.1033 53.1755C77.8602 52.5669 77.3768 52.0738 76.7571 51.8027C73.2232 50.213 66.1943 47.0461 59.8671 44.1275C37.1045 33.5586 17.7589 34.2416 2.96068 57.2548Z" fill="url(#paint0_linear)"/>
<path d="M78.6942 17.7985C79.5387 16.482 80.4872 14.9544 81.2927 13.7373C81.6393 13.1775 81.7423 12.51 81.5795 11.8783C81.4167 11.2466 81.0012 10.7012 80.4222 10.3592L63.5322 0.423718C63.2365 0.233343 62.903 0.103167 62.5524 0.0412887C62.2018 -0.0205892 61.8417 -0.012845 61.4944 0.0640394C61.147 0.140924 60.82 0.285303 60.5336 0.488196C60.2471 0.691089 60.0074 0.948154 59.8294 1.2434C59.1538 2.32389 58.2833 3.72728 57.3349 5.23003C50.6438 15.7865 43.9138 14.4949 31.7789 8.95586L15.0838 1.38001C14.7699 1.23717 14.4291 1.15602 14.0818 1.14134C13.7344 1.12667 13.3875 1.17878 13.0616 1.29459C12.7357 1.4104 12.4374 1.58755 12.1845 1.81556C11.9315 2.04356 11.729 2.31777 11.5889 2.62195L3.54661 20.0091C3.27351 20.606 3.25665 21.2816 3.49968 21.8902C3.7427 22.4989 4.22615 22.9919 4.84585 23.263C8.37976 24.8527 15.4086 28.0197 21.7359 30.9382C44.5504 41.4947 63.896 40.7868 78.6942 17.7985Z" fill="url(#paint1_linear)"/>
<defs>
<linearGradient id="paint0_linear" x1="77.6016" y1="79.7588" x2="27.6726" y2="49.7448" gradientUnits="userSpaceOnUse">
<stop offset="0.18" stop-color="#0052CC"/>
<stop offset="1" stop-color="#2684FF"/>
</linearGradient>
<linearGradient id="paint1_linear" x1="-21548.2" y1="58590.5" x2="-19869.2" y2="60606.3" gradientUnits="userSpaceOnUse">
<stop offset="0.18" stop-color="#0052CC"/>
<stop offset="1" stop-color="#2684FF"/>
</linearGradient>
</defs>
</svg>
