<svg width="66" height="76" viewBox="0 0 66 76" fill="none" xmlns="http://www.w3.org/2000/svg">
<path d="M32.8342 75.0575L5.98355 67.5602L0 0.0574646H65.749L59.7591 67.5496L32.8342 75.0575Z" fill="#264DE4"/>
<path d="M54.631 63.252L59.7498 5.57681H32.8745V69.3188L54.631 63.252Z" fill="#2965F1"/>
<path d="M13.7171 30.6126L14.4548 38.8914H32.8744V30.6126H13.7171Z" fill="#EBEBEB"/>
<path d="M12.2349 13.8558L12.9831 22.1348H32.8745V13.8558H32.846H12.2349Z" fill="#EBEBEB"/>
<path d="M32.8745 52.1139L32.8384 52.1235L23.6714 49.6339L23.0854 43.031H18.631H14.8227L15.9759 56.0302L32.8366 60.738L32.8745 60.7275V52.1139Z" fill="#EBEBEB"/>
<path d="M51.979 30.6126L53.4649 13.8558H32.8459V22.1348H44.4444L43.6954 30.6126H32.8459V38.8914H42.9816L42.0262 49.6286L32.8459 52.1208V60.734L49.7201 56.0301L49.8439 54.6314L51.7781 32.8357L51.979 30.6126Z" fill="white"/>
</svg>
