<svg width="76" height="76" viewBox="0 0 76 76" fill="none" xmlns="http://www.w3.org/2000/svg">
<path d="M75.8585 39.0406C75.8585 17.7655 58.8769 0.518767 37.9293 0.518767C16.9815 0.518767 0 17.7655 0 39.0406C0 55.927 10.6991 70.2739 25.5872 75.4751C26.4948 74.8099 27.5401 73.9894 27.5401 72.6068C27.5401 70.4881 27.495 65.0378 27.495 65.0378C27.495 65.0378 25.8485 65.3224 23.4991 65.3224C17.5788 65.3224 15.7068 61.5068 14.8158 59.3711C13.6562 56.5899 12.1525 55.2838 10.5549 54.2396C9.57382 53.5979 9.34837 52.8424 10.4836 52.626C15.7236 51.6294 17.0637 58.6289 20.5634 59.7451C23.0613 60.5404 26.2732 60.1967 27.8709 59.1527C28.0814 57.0151 29.6075 55.166 30.8781 54.1923C21.9768 53.3285 16.699 50.2055 13.9624 45.1863L13.6693 44.6242L12.9815 43.0297L12.7784 42.4582C11.9214 39.9105 11.5417 36.9926 11.5417 33.733C11.5417 27.9467 13.3272 25.7636 15.7236 22.6787C13.8911 16.0816 16.3815 11.5731 16.3815 11.5731C16.3815 11.5731 20.2344 10.7662 27.5176 16.0343C31.4644 14.3256 41.9898 14.1833 46.9704 15.6545C50.0246 13.6138 55.6161 10.7187 57.8716 11.5293C58.4824 12.5222 59.7981 15.4173 58.6704 21.777C59.4353 23.1722 63.4161 26.1434 63.4312 34.5438C63.3674 37.6418 63.0477 40.2581 62.4556 42.4696L62.1268 43.601C62.1268 43.601 61.9388 44.1344 61.734 44.6433L61.4934 45.2052C58.8527 51.0635 53.4359 53.2506 44.6831 54.16C47.5192 55.9634 48.3331 58.2262 48.3331 64.3487C48.3331 70.4711 48.2521 71.2931 48.2711 72.7017C48.2873 73.9463 49.2676 74.8411 50.1492 75.5188C65.1013 70.3538 75.8585 55.9732 75.8585 39.0406Z" fill="black"/>
</svg>
