<svg width="99" height="75" viewBox="0 0 99 75" fill="none" xmlns="http://www.w3.org/2000/svg">
<path d="M91.5003 74.8435H6.18883C2.88083 74.8435 0.0951538 72.1204 0.0951538 68.6944V6.50055C0.0951538 3.16246 2.79378 0.35144 6.18883 0.35144H91.5003C94.8083 0.35144 97.594 3.07462 97.594 6.50055V68.6944C97.594 72.1204 94.8954 74.8435 91.5003 74.8435Z" fill="#E3E3E3"/>
<path opacity="0.1" d="M12.2825 74.8433L48.7576 45.2398L49.0187 43.6586L11.412 16.339L11.325 73.5257L12.2825 74.8433Z" fill="#231F20"/>
<path d="M6.18884 74.8434C2.79378 74.8434 0.0951538 72.1202 0.0951538 68.6943V6.41261C0.0951538 2.98668 2.79378 2.37177 6.18884 2.37177C9.58389 2.37177 12.2825 3.07452 12.2825 6.41261V74.8434H6.18884Z" fill="#D54B3D"/>
<path d="M6.18884 3.25021C10.5415 3.25021 11.412 4.56787 11.412 6.41261V73.9649H6.18884C3.3161 73.9649 0.96568 71.5931 0.96568 68.6943V6.41261C0.96568 4.48003 1.83621 3.25021 6.18884 3.25021ZM6.18884 2.37177C2.79378 2.37177 0.0951538 3.07452 0.0951538 6.41261V68.6943C0.0951538 72.1202 2.79378 74.8434 6.18884 74.8434H12.2825V6.41261C12.2825 2.98668 9.58389 2.37177 6.18884 2.37177Z" fill="#D72B27"/>
<path d="M91.5004 74.8434H85.4067V6.23692C85.4067 2.81099 88.1053 2.37177 91.5004 2.37177C94.8954 2.37177 97.5941 2.81099 97.5941 6.23692V68.7821C97.5941 72.1202 94.8954 74.8434 91.5004 74.8434Z" fill="#D54B3D"/>
<path d="M91.5004 3.25021C95.4178 3.25021 96.7235 4.04081 96.7235 6.23692V68.7821C96.7235 71.681 94.3731 74.0528 91.5004 74.0528H86.2772V6.23692C86.2772 3.95296 87.583 3.25021 91.5004 3.25021ZM91.5004 2.37177C88.1053 2.37177 85.4067 2.81099 85.4067 6.23692V74.9312H91.5004C94.8954 74.9312 97.5941 72.208 97.5941 68.7821V6.23692C97.5941 2.81099 94.8954 2.37177 91.5004 2.37177Z" fill="#D72B27"/>
<path d="M65.3846 74.8434L0.605209 8.96703L4.01255 10.3656L49.1058 43.1316L97.594 7.25275L97.594 68.7821C97.594 72.1202 94.8954 74.8434 91.5003 74.8434H65.3846Z" fill="url(#paint0_linear)"/>
<path d="M48.7576 45.2398L2.7068 11.5076C0.00817566 9.48718 -0.775297 5.62202 1.22691 2.89885C3.22912 0.175671 7.14648 -0.43924 9.93217 1.58118L48.8447 30.1306L88.0183 1.2298C90.7169 -0.790617 94.5472 -0.175707 96.5495 2.63531C98.5517 5.35849 97.9423 9.22364 95.1566 11.2441L48.7576 45.2398Z" fill="#D54B3D"/>
<path d="M91.5004 0.878445C93.1544 0.878445 94.7213 1.66905 95.766 3.07456C97.42 5.44636 96.8976 8.6966 94.6343 10.4535L48.7576 44.1858L3.22912 10.8049C0.878699 9.04798 0.269331 5.70989 1.92333 3.42593C2.88091 2.10827 4.5349 1.22982 6.27596 1.22982C7.40764 1.22982 8.53932 1.5812 9.40985 2.28396L48.2353 30.7456L48.7576 31.0969L49.2799 30.7456L88.3665 1.84473C89.3241 1.22982 90.3687 0.878445 91.5004 0.878445ZM91.5004 0C90.2816 0 88.9759 0.351378 87.9312 1.14198L48.7576 30.0428L9.84511 1.49336C8.80048 0.702756 7.49469 0.351378 6.1889 0.351378C4.27375 0.351378 2.35859 1.22982 1.13986 2.89887C-0.775299 5.62205 0.00817368 9.4872 2.7068 11.5076L48.7576 45.3278L95.0695 11.2441C97.7682 9.22367 98.3775 5.44636 96.4624 2.63533C95.2436 0.878445 93.4155 0 91.5004 0Z" fill="#D72B27"/>
<defs>
<linearGradient id="paint0_linear" x1="0.608982" y1="41.0465" x2="97.6253" y2="41.0465" gradientUnits="userSpaceOnUse">
<stop stop-opacity="0.1"/>
<stop offset="1" stop-opacity="0.2"/>
</linearGradient>
</defs>
</svg>
