<svg width="343" height="313" viewBox="0 0 343 313" fill="none" xmlns="http://www.w3.org/2000/svg">
<path d="M313.332 301.586V125.783L283.809 141.829V301.586H270.279V149.183L240.756 165.229V301.586H227.225V172.582L197.703 188.627V301.586H184.172V195.982L183.111 196.559L154.651 164.921V301.586H141.119V149.879L139.695 148.297L111.597 158.709V301.586H98.0653V163.723L68.5439 174.663V301.586H55.0119V179.675L25.4906 190.615V301.586H11.9599V173.489L139.695 126.154L183.111 174.418L310.295 105.293L317.952 118.555L338.284 83.338H297.62L305.372 96.7673L185.235 162.063L142.543 114.606L11.9599 162.994V0.678009H0.887939V312.657H6.42393H11.9599H342.444V301.586H313.332Z" fill="#4D4C4E"/>
</svg>
