<svg width="66" height="75" viewBox="0 0 66 75" fill="none" xmlns="http://www.w3.org/2000/svg">
<path d="M65.749 0L59.7591 67.4922L32.8342 75L5.98356 67.5027L0 0H65.749Z" fill="#E44D26"/>
<path d="M32.8745 69.2613L54.631 63.1945L59.7497 5.51934H32.8745V69.2613Z" fill="#F16529"/>
<path d="M21.2304 22.0774H32.8745V13.7984H32.846H12.2349L12.4319 16.0195L14.4549 38.834H32.8745V30.5551H21.9826L21.2304 22.0774Z" fill="#EBEBEB"/>
<path d="M23.0854 42.9736H18.631H14.8227L15.9759 55.9727L32.8366 60.6806L32.8745 60.67V52.0564L32.8384 52.0661L23.6714 49.5764L23.0854 42.9736Z" fill="#EBEBEB"/>
<path d="M32.8461 38.834H42.9818L42.0263 49.5711L32.8461 52.0633V60.6765L49.7202 55.9727L49.844 54.574L51.7783 32.7783L51.9791 30.5551H49.761H32.8461V38.834Z" fill="white"/>
<path d="M32.8461 22.0571V22.0774H52.7016H52.728L52.8932 20.2165L53.2682 16.0195L53.465 13.7984H32.8461V18.9403V22.0571Z" fill="white"/>
</svg>
