<svg width="19" height="18" viewBox="0 0 19 18" fill="none" xmlns="http://www.w3.org/2000/svg">
<path d="M16.4667 9.89637C16.4667 10.2277 16.1831 10.4964 15.8333 10.4964C15.4836 10.4964 15.2 10.2277 15.2 9.89637V4.5C15.2 4.16865 15.4836 3.9 15.8333 3.9C16.1831 3.9 16.4667 4.16865 16.4667 4.5V9.89637ZM16.2456 13.6519C16.1478 13.7313 13.8016 15.5964 9.50003 15.5964C5.19844 15.5964 2.85235 13.7313 2.7545 13.6519C2.48897 13.4363 2.45824 13.0574 2.68585 12.8058C2.91296 12.5547 3.31169 12.525 3.5774 12.7396C3.61463 12.7691 5.70962 14.3963 9.50003 14.3964C13.338 14.3964 15.4007 12.7573 15.4211 12.7408C15.6861 12.5252 16.0867 12.5542 16.3142 12.8058C16.5419 13.0574 16.5112 13.4363 16.2456 13.6519ZM2.53332 4.5C2.53332 4.16865 2.8169 3.9 3.16665 3.9C3.51648 3.9 3.79999 4.16865 3.79999 4.5V9.89637C3.79999 10.2277 3.51648 10.4963 3.16665 10.4963C2.8169 10.4963 2.53332 10.2277 2.53332 9.89631V4.5ZM5.70004 3.3C5.70004 2.96865 5.98362 2.7 6.33337 2.7C6.68313 2.7 6.96671 2.96865 6.96671 3.3V11.3157C6.96671 11.647 6.68313 11.9157 6.33337 11.9157C5.98362 11.9157 5.70004 11.647 5.70004 11.3157V3.3ZM8.8667 2.9964C8.8667 2.6649 9.15027 2.3964 9.50003 2.3964C9.84979 2.3964 10.1334 2.6649 10.1334 2.9964V11.6964C10.1334 12.0277 9.84979 12.2964 9.50003 12.2964C9.15027 12.2964 8.8667 12.0277 8.8667 11.6964V2.9964ZM12.0334 3.3C12.0334 2.96865 12.3169 2.7 12.6667 2.7C13.0164 2.7 13.3 2.96865 13.3 3.3V11.3157C13.3 11.647 13.0164 11.9157 12.6667 11.9157C12.3169 11.9157 12.0334 11.647 12.0334 11.3157V3.3ZM16.625 0H2.37499C1.06336 0 0 1.0074 0 2.25L6.18488e-05 15.75C6.18488e-05 16.9926 1.06336 18 2.37499 18H16.625C17.9366 18 19 16.9926 19 15.75V2.25C19 1.0074 17.9366 0 16.625 0Z" fill="#1F8DED"/>
</svg>
