<svg width="80" height="75" viewBox="0 0 80 75" fill="none" xmlns="http://www.w3.org/2000/svg">
<path d="M68.6111 41.2349C68.6111 42.6155 67.4296 43.7349 65.9723 43.7349C64.5149 43.7349 63.3334 42.6155 63.3334 41.2349V18.75C63.3334 17.3694 64.5149 16.25 65.9723 16.25C67.4296 16.25 68.6111 17.3694 68.6111 18.75V41.2349ZM67.6902 56.8831C67.2825 57.2139 57.5067 64.9851 39.5835 64.9851C21.6602 64.9851 11.8848 57.2136 11.4771 56.8828C10.3707 55.9844 10.2427 54.406 11.191 53.3574C12.1373 52.3112 13.7987 52.1875 14.9058 53.0816C15.0609 53.2044 23.7901 59.9846 39.5835 59.9849C55.5752 59.9849 64.1696 53.1555 64.2547 53.0867C65.3589 52.1883 67.0278 52.3091 67.9758 53.3577C68.9245 54.406 68.7965 55.9846 67.6902 56.8831ZM10.5555 18.75C10.5555 17.3694 11.7371 16.25 13.1944 16.25C14.652 16.25 15.8333 17.3694 15.8333 18.75V41.2349C15.8333 42.6153 14.652 43.7346 13.1944 43.7346C11.7371 43.7346 10.5555 42.6153 10.5555 41.2346V18.75ZM23.7502 13.75C23.7502 12.3694 24.9317 11.25 26.3891 11.25C27.8464 11.25 29.0279 12.3694 29.0279 13.75V47.1487C29.0279 48.5293 27.8464 49.6487 26.3891 49.6487C24.9317 49.6487 23.7502 48.5293 23.7502 47.1487V13.75ZM36.9446 12.485C36.9446 11.1037 38.1261 9.985 39.5835 9.985C41.0408 9.985 42.2223 11.1037 42.2223 12.485V48.7349C42.2223 50.1155 41.0408 51.2349 39.5835 51.2349C38.1261 51.2349 36.9446 50.1155 36.9446 48.7349V12.485ZM50.139 13.75C50.139 12.3694 51.3205 11.25 52.7779 11.25C54.2352 11.25 55.4167 12.3694 55.4167 13.75V47.1487C55.4167 48.5293 54.2352 49.6487 52.7779 49.6487C51.3205 49.6487 50.139 48.5293 50.139 47.1487V13.75ZM69.2709 0H9.89579C4.43069 0 0 4.1975 0 9.375L0.000257703 65.625C0.000257703 70.8025 4.43069 75 9.89579 75H69.2709C74.736 75 79.1667 70.8025 79.1667 65.625V9.375C79.1667 4.1975 74.736 0 69.2709 0Z" fill="#1F8DED"/>
</svg>
