<svg width="435" height="95" viewBox="0 0 435 95" fill="none" xmlns="http://www.w3.org/2000/svg">
<path d="M173.18 23.93V61H177.965V23.93H173.18ZM186.711 61H191.551V44.995C191.551 44.17 191.661 43.345 191.881 42.74C192.706 40.045 195.181 37.79 198.371 37.79C202.936 37.79 204.531 41.365 204.531 45.655V61H209.371V45.105C209.371 35.975 203.651 33.775 199.966 33.775C195.566 33.775 192.486 36.25 191.166 38.78H191.056L190.781 34.38H186.491C186.656 36.58 186.711 38.835 186.711 41.585V61ZM213.221 34.38L223.341 61H227.961L238.411 34.38H233.351L228.181 49.34C227.301 51.76 226.531 53.96 225.926 56.16H225.761C225.211 53.96 224.496 51.76 223.616 49.34L218.391 34.38H213.221ZM263.858 48.57C263.913 48.075 264.023 47.305 264.023 46.315C264.023 41.42 261.713 33.775 253.023 33.775C245.268 33.775 240.538 40.1 240.538 48.13C240.538 56.16 245.433 61.55 253.628 61.55C257.863 61.55 260.778 60.67 262.483 59.9L261.658 56.435C259.843 57.205 257.753 57.81 254.288 57.81C249.448 57.81 245.268 55.115 245.158 48.57H263.858ZM245.213 45.105C245.598 41.75 247.743 37.24 252.638 37.24C258.083 37.24 259.403 42.025 259.348 45.105H245.213ZM270.017 61H274.857V44.995C274.857 44.17 274.967 43.345 275.187 42.74C276.012 40.045 278.487 37.79 281.677 37.79C286.242 37.79 287.837 41.365 287.837 45.655V61H292.677V45.105C292.677 35.975 286.957 33.775 283.272 33.775C278.872 33.775 275.792 36.25 274.472 38.78H274.362L274.087 34.38H269.797C269.962 36.58 270.017 38.835 270.017 41.585V61ZM301.41 28V34.38H297.285V38.065H301.41V52.585C301.41 55.72 301.905 58.085 303.28 59.515C304.435 60.835 306.25 61.55 308.505 61.55C310.375 61.55 311.86 61.275 312.795 60.89L312.575 57.26C311.97 57.425 311.035 57.59 309.77 57.59C307.075 57.59 306.14 55.72 306.14 52.42V38.065H313.07V34.38H306.14V26.735L301.41 28ZM329.471 33.775C322.101 33.775 316.271 39 316.271 47.91C316.271 56.325 321.826 61.605 329.031 61.605C335.466 61.605 342.286 57.315 342.286 47.47C342.286 39.33 337.116 33.775 329.471 33.775ZM329.361 37.405C335.081 37.405 337.336 43.125 337.336 47.635C337.336 53.63 333.871 57.975 329.251 57.975C324.521 57.975 321.166 53.575 321.166 47.745C321.166 42.685 323.641 37.405 329.361 37.405ZM348.381 61H353.166V46.81C353.166 45.985 353.276 45.215 353.386 44.555C354.046 40.925 356.466 38.34 359.876 38.34C360.536 38.34 361.031 38.395 361.526 38.505V33.94C361.086 33.83 360.701 33.775 360.151 33.775C356.906 33.775 353.991 36.03 352.781 39.605H352.561L352.396 34.38H348.161C348.326 36.855 348.381 39.55 348.381 42.685V61ZM371.429 61V34.38H366.589V61H371.429ZM369.009 23.875C367.249 23.875 365.984 25.195 365.984 26.9C365.984 28.55 367.194 29.87 368.899 29.87C370.824 29.87 372.034 28.55 371.979 26.9C371.979 25.195 370.824 23.875 369.009 23.875ZM400.875 48.57C400.93 48.075 401.04 47.305 401.04 46.315C401.04 41.42 398.73 33.775 390.04 33.775C382.285 33.775 377.555 40.1 377.555 48.13C377.555 56.16 382.45 61.55 390.645 61.55C394.88 61.55 397.795 60.67 399.5 59.9L398.675 56.435C396.86 57.205 394.77 57.81 391.305 57.81C386.465 57.81 382.285 55.115 382.175 48.57H400.875ZM382.23 45.105C382.615 41.75 384.76 37.24 389.655 37.24C395.1 37.24 396.42 42.025 396.365 45.105H382.23ZM425.184 21.95V37.845H425.074C423.864 35.7 421.114 33.775 417.044 33.775C410.554 33.775 405.054 39.22 405.109 48.075C405.109 56.16 410.059 61.605 416.494 61.605C420.839 61.605 424.084 59.35 425.569 56.38H425.679L425.899 61H430.244C430.079 59.185 430.024 56.49 430.024 54.125V21.95H425.184ZM425.184 49.835C425.184 50.605 425.129 51.265 424.964 51.925C424.084 55.555 421.114 57.7 417.869 57.7C412.644 57.7 410.004 53.245 410.004 47.855C410.004 41.97 412.974 37.57 417.979 37.57C421.609 37.57 424.249 40.1 424.964 43.18C425.129 43.785 425.184 44.61 425.184 45.215V49.835Z" fill="black"/>
<path d="M77.1429 30.7143H0V43.5714H77.1429V30.7143ZM77.1429 5H0V17.8571H77.1429V5ZM0 69.2857H51.4286V56.4286H0V69.2857ZM125.357 40.3571L135 50L90.0643 95L61.0714 66.0714L70.7143 56.4286L90.0643 75.7143L125.357 40.3571Z" fill="#6D4C41"/>
</svg>
