<svg width="73" height="75" viewBox="0 0 73 75" fill="none" xmlns="http://www.w3.org/2000/svg">
<path d="M71.6308 35.4012L39.376 3.1283L36.2494 0L11.9693 24.2938L0.86807 35.4012C0.312217 35.9581 0 36.7129 0 37.5C0 38.287 0.312217 39.0418 0.86807 39.5987L23.0507 61.7938L36.2494 74.9999L60.5296 50.7061L60.9055 50.3299L71.6308 39.5987C72.1866 39.0418 72.4988 38.287 72.4988 37.5C72.4988 36.7129 72.1866 35.9581 71.6308 35.4012V35.4012ZM36.2494 48.5876L25.168 37.5L36.2494 26.4123L47.3308 37.5L36.2494 48.5876Z" fill="#2684FF"/>
<path d="M36.2482 26.4123C32.763 22.9247 30.7984 18.199 30.7836 13.267C30.7688 8.3351 32.7048 3.59763 36.1691 0.0890808L11.9186 24.3433L25.1173 37.5495L36.2482 26.4123Z" fill="url(#paint0_linear)"/>
<path d="M47.3591 37.4703L36.248 48.5877C37.982 50.3215 39.3575 52.3803 40.296 54.6463C41.2344 56.9122 41.7174 59.341 41.7174 61.7938C41.7174 64.2466 41.2344 66.6754 40.296 68.9414C39.3575 71.2074 37.982 73.2661 36.248 75V75L60.5579 50.6765L47.3591 37.4703Z" fill="url(#paint1_linear)"/>
<defs>
<linearGradient id="paint0_linear" x1="34.2694" y1="15.196" x2="18.7863" y2="30.6704" gradientUnits="userSpaceOnUse">
<stop offset="0.18" stop-color="#0052CC"/>
<stop offset="1" stop-color="#2684FF"/>
</linearGradient>
<linearGradient id="paint1_linear" x1="978.983" y1="2299.76" x2="1513.62" y2="1953.45" gradientUnits="userSpaceOnUse">
<stop offset="0.18" stop-color="#0052CC"/>
<stop offset="1" stop-color="#2684FF"/>
</linearGradient>
</defs>
</svg>
