<svg width="48" height="48" viewBox="0 0 48 48" fill="none" xmlns="http://www.w3.org/2000/svg">
<path d="M44.4491 2.28485e-07H3.54043C1.5873 2.28485e-07 0 1.54944 0 3.46095V44.5365C0 46.4479 1.5873 48 3.54043 48H44.4491C46.4062 48 48 46.4479 48 44.5365V3.46095C48 1.54944 46.4062 2.28485e-07 44.4491 2.28485e-07Z" fill="#6C757D"/>
<path d="M10.6774 6.60812C12.9548 6.60812 14.8037 8.45772 14.8037 10.7364C14.8037 13.0157 12.9548 14.8653 10.6774 14.8653C8.39083 14.8653 6.54706 13.0157 6.54706 10.7364C6.54706 8.45772 8.39083 6.60812 10.6774 6.60812ZM7.11215 17.9949H14.2387V40.9011H7.11215V17.9949Z" fill="white"/>
<path d="M18.7049 17.9949H25.5294V21.1263H25.6269C26.5762 19.3255 28.8991 17.4264 32.3629 17.4264C39.5714 17.4264 40.9035 22.1693 40.9035 28.3386V40.9011H33.7848V29.7618C33.7848 27.1055 33.7391 23.6882 30.0855 23.6882C26.381 23.6882 25.8157 26.5834 25.8157 29.5717V40.9011H18.7049V17.9949" fill="white"/>
</svg>
