<svg width="290" height="75" viewBox="0 0 290 75" fill="none" xmlns="http://www.w3.org/2000/svg">
<g clip-path="url(#clip0)">
<path d="M72.7391 73.8151H64.6559V43.9642C64.6559 32.9732 60.7777 27.4776 53.0179 27.4776C51.2201 27.4776 49.5687 27.8556 48.0603 28.6115C46.552 29.3674 45.2411 30.3888 44.1277 31.6827C43.0143 32.9766 42.1528 34.4475 41.5399 36.0989C40.927 37.7503 40.624 39.4766 40.624 41.2709V73.8151H32.5442V42.0268C32.5442 37.7162 31.6078 34.2126 29.7419 31.5193C27.8726 28.826 25.1078 27.4776 21.4441 27.4776C19.5782 27.4776 17.852 27.8896 16.2721 28.717C14.6922 29.5444 13.3268 30.6578 12.176 32.0572C11.0251 33.4567 10.1296 35.04 9.48268 36.8003C8.83575 38.5606 8.51228 40.338 8.51228 42.1358V73.8151H0.432424V35.3464C0.432424 33.2626 0.39497 31.0903 0.323467 28.826C0.251964 26.5617 0.143006 24.2089 0 21.7676H7.22182V30.2799H7.9743C11.638 23.8855 17.0246 20.6882 24.1374 20.6882C27.5866 20.6882 30.5863 21.6246 33.1366 23.4905C35.6869 25.3598 37.4983 27.9101 38.5777 31.1413H38.7922C40.6581 27.6922 43.0483 25.0908 45.9561 23.3305C48.8673 21.5701 52.1871 20.6882 55.9257 20.6882C61.0262 20.6882 65.1019 22.6461 68.1561 26.5617C71.2103 30.4774 72.7357 35.9218 72.7357 42.8883V73.8151H72.7391ZM114.773 73.8151L114.02 67.1347H113.697C110.176 72.3782 104.933 75 97.9627 75C95.7359 75 93.6862 74.6391 91.8203 73.9241C89.951 73.2056 88.3336 72.1841 86.9717 70.8528C85.6097 69.5215 84.5304 67.962 83.7404 66.1643C82.9505 64.3699 82.5555 62.3916 82.5555 60.2363C82.5555 53.9134 85.1773 49.1193 90.4209 45.8505C95.6644 42.5818 103.281 40.9475 113.264 40.9475V39.7626C113.264 31.2162 109.277 26.9397 101.303 26.9397C96.3454 26.9397 91.9633 28.1961 88.1566 30.7123L86.2158 25.1078C90.8124 22.1626 96.2364 20.6882 102.488 20.6882C115.13 20.6882 121.453 27.6206 121.453 41.4855V61.4246C121.453 63.9374 121.508 66.2221 121.617 68.2685C121.726 70.3182 121.923 72.1671 122.209 73.8185H114.773V73.8151ZM113.373 46.8754H111.756C97.8197 46.8754 90.8499 50.9715 90.8499 59.1604C90.8499 62.395 91.7113 64.7989 93.4376 66.3822C95.1605 67.962 97.3158 68.752 99.9035 68.752C101.555 68.752 103.189 68.466 104.807 67.8905C106.424 67.3151 107.861 66.5082 109.117 65.4662C110.374 64.4243 111.399 63.1509 112.188 61.6425C112.978 60.1342 113.373 58.4453 113.373 56.5794V46.8754V46.8754ZM169.52 29.9564C166.357 28.2301 162.694 27.3687 158.529 27.3687C155.584 27.3687 152.959 27.8896 150.661 28.9315C148.362 29.9734 146.421 31.4103 144.842 33.2422C143.262 35.074 142.039 37.2463 141.178 39.7626C140.316 42.2754 139.884 45.0061 139.884 47.9514C139.884 50.9681 140.333 53.7363 141.232 56.2492C142.131 58.762 143.388 60.9003 145.005 62.6606C146.619 64.4209 148.543 65.7863 150.77 66.7567C152.996 67.7271 155.475 68.2106 158.206 68.2106C162.084 68.2106 165.928 67.3492 169.738 65.6229L171.352 71.8709C167.328 73.8832 162.445 74.8876 156.697 74.8876C152.887 74.8876 149.442 74.2577 146.35 73.0013C143.262 71.7449 140.602 69.9471 138.376 67.6148C136.149 65.279 134.443 62.4972 133.258 59.2625C132.073 56.0278 131.481 52.4016 131.481 48.377C131.481 44.2809 132.145 40.5457 133.473 37.168C134.8 33.7938 136.653 30.8826 139.023 28.4412C141.392 25.9999 144.249 24.0932 147.589 22.7312C150.93 21.3658 154.61 20.6814 158.635 20.6814C163.878 20.6814 168.189 21.6178 171.567 23.4837L169.52 29.9564V29.9564ZM240.863 36.7458C240.863 42.4218 240.091 47.5939 238.545 52.262C236.999 56.9335 234.81 60.9547 231.97 64.3324C229.134 67.7101 225.718 70.3319 221.731 72.1978C217.744 74.0637 213.308 75 208.425 75C203.753 75 199.48 74.0841 195.602 72.2522C191.72 70.4204 188.38 67.8701 185.578 64.6014C182.776 61.3327 180.603 57.4511 179.058 52.9634C177.512 48.4757 176.742 43.5352 176.742 38.1452C176.742 32.5442 177.549 27.3891 179.166 22.6835C180.784 17.9779 183.028 13.9567 185.901 10.6131C188.775 7.27289 192.204 4.66813 196.191 2.80224C200.182 0.936351 204.547 0 209.29 0C214.029 0 218.357 0.898897 222.273 2.69329C226.188 4.49108 229.512 7.00391 232.242 10.2386C234.973 13.4732 237.091 17.3514 238.599 21.8766C240.108 26.4017 240.863 31.3592 240.863 36.7458ZM232.133 37.1782C232.133 32.8676 231.558 28.8634 230.407 25.1623C229.256 21.4646 227.659 18.2299 225.613 15.4651C223.563 12.7003 221.122 10.545 218.286 8.99918C215.449 7.45676 212.303 6.68384 208.857 6.68384C205.337 6.68384 202.122 7.45676 199.211 8.99918C196.3 10.545 193.825 12.6969 191.775 15.4651C189.725 18.2299 188.128 21.5361 186.977 25.3802C185.826 29.2244 185.254 33.409 185.254 37.9341C185.254 42.1732 185.83 46.1434 186.977 49.8411C188.128 53.5422 189.725 56.7565 191.775 59.4872C193.821 62.218 196.283 64.3733 199.157 65.9532C202.03 67.533 205.19 68.323 208.639 68.323C212.16 68.323 215.374 67.533 218.286 65.9532C221.197 64.3733 223.672 62.1805 225.722 59.3783C227.772 56.576 229.348 53.2903 230.465 49.5176C231.575 45.745 232.133 41.6319 232.133 37.1782V37.1782ZM289.792 54.3118C289.792 57.4 289.217 60.2227 288.066 62.773C286.915 65.3232 285.281 67.499 283.163 69.2934C281.045 71.0912 278.478 72.4736 275.457 73.444C272.441 74.4144 269.063 74.8979 265.328 74.8979C257.854 74.8979 251.929 73.3554 247.547 70.2638L249.808 63.4744C254.619 66.4911 259.972 67.9995 265.866 67.9995C270.823 67.9995 274.667 66.8146 277.398 64.4448C280.129 62.075 281.494 58.9152 281.494 54.9621C281.494 51.2984 280.432 48.3361 278.314 46.0719C276.193 43.811 272.693 41.7442 267.807 39.8749C255.379 35.2068 249.165 28.3799 249.165 19.4012C249.165 16.6024 249.72 14.0146 250.833 11.6448C251.946 9.27498 253.509 7.22522 255.522 5.50234C257.534 3.77945 259.921 2.45154 262.686 1.51519C265.45 0.58224 268.45 0.115767 271.685 0.115767C277.933 0.115767 283.033 1.26663 286.986 3.56494L284.508 10.2454C280.987 8.01857 276.605 6.90516 271.361 6.90516C267.194 6.90516 263.816 7.94707 261.232 10.0309C258.644 12.1147 257.353 14.8795 257.353 18.3286C257.353 19.98 257.585 21.4544 258.051 22.7482C258.518 24.0421 259.291 25.261 260.37 26.4119C261.446 27.5628 262.904 28.6591 264.735 29.6976C266.567 30.7395 268.886 31.8359 271.685 32.9834C274.916 34.2773 277.684 35.6596 279.983 37.134C282.281 38.6083 284.167 40.2052 285.641 41.9281C287.116 43.6544 288.175 45.5407 288.822 47.5871C289.469 49.6232 289.792 51.867 289.792 54.3118Z" fill="black"/>
</g>
<defs>
<clipPath id="clip0">
<rect width="289.792" height="75" fill="white"/>
</clipPath>
</defs>
</svg>
