<svg width="166" height="75" viewBox="0 0 166 75" fill="none" xmlns="http://www.w3.org/2000/svg">
<path d="M3.74597 74.7834H46.0219C46.0219 74.7834 37.9413 37.7677 64.6982 22.7788C70.5312 19.9315 89.1005 9.2942 119.496 31.8581C120.46 31.0523 121.369 30.4076 121.369 30.4076C121.369 30.4076 93.5422 2.52501 62.5577 5.64099C46.9851 7.0378 27.8272 21.2746 16.5893 40.0779C5.35138 58.8811 3.74597 74.7834 3.74597 74.7834ZM91.8297 8.64951L92.0438 5.05003C91.5621 4.78141 90.2243 4.13672 86.8529 3.1697L86.6389 6.71546C88.4048 7.30642 90.1173 7.9511 91.8297 8.64951ZM86.7459 20.0389L86.5318 23.4235C88.2978 23.4772 90.0638 23.6921 91.8297 24.0682L92.0438 20.7373C90.2243 20.3613 88.4583 20.1464 86.7459 20.0389ZM66.9458 3.27714H67.4809L66.4106 0C64.7517 0 63.0393 0.107447 61.2733 0.322342L62.2901 3.49204C63.842 3.33087 65.3939 3.27714 66.9458 3.27714ZM69.5144 23.0475L70.7453 26.7544C72.2972 26.0023 73.8491 25.3576 75.401 24.8741L74.2237 21.3283C72.4042 21.8655 70.8523 22.4565 69.5144 23.0475ZM45.2192 8.91813L42.8111 5.2112C41.4732 5.9096 40.0818 6.66174 38.637 7.52131L41.0986 11.282C42.49 10.4224 43.8278 9.61654 45.2192 8.91813ZM56.1895 33.0938L58.7582 36.9619C59.6679 35.6188 60.7382 34.3832 61.9155 33.1475L59.5074 29.4943C58.2765 30.6225 57.1528 31.8581 56.1895 33.0938ZM48.43 50.3928L52.7646 53.8311C52.9787 51.7359 53.3533 49.6407 53.8884 47.5455L50.0354 44.4832C49.3397 46.471 48.8581 48.4588 48.43 50.3928ZM24.991 24.8741L21.1915 21.5432C19.8001 22.8863 18.4623 24.2294 17.2314 25.5725L21.352 29.1182C22.4758 27.6677 23.7066 26.2172 24.991 24.8741ZM8.82978 48.8885L2.67569 46.6322C1.65893 48.9423 0.535138 51.6285 0 53.079L6.15409 55.3354C6.84977 53.5088 7.97356 50.8763 8.82978 48.8885ZM47.6273 64.0386C47.7343 66.886 48.0019 69.1961 48.2695 70.8078L54.6911 73.1179C54.2095 71.0227 53.7279 68.6589 53.4068 66.1338L47.6273 64.0386Z" fill="#CC0000"/>
<path d="M81.236 67.1108C81.236 67.1108 87.7561 66.5849 87.7561 58.6606C87.7561 50.7363 79.8575 50 79.8575 50H65.625V75H72.7785V68.9691L78.9633 75H89.5445L81.236 67.1108ZM78.479 61.9916H72.7785V56.2763H78.5162C78.5162 56.2763 80.1183 56.8373 80.1183 59.1164C80.1183 61.3955 78.479 61.9916 78.479 61.9916ZM105.416 50.1753H98.1511C92.9722 50.1753 91.2211 54.5933 91.2211 56.6971V75H98.4864V70.6171H105.305V75H112.346V56.6971C112.346 51.3675 107.205 50.1753 105.416 50.1753ZM105.305 63.5344H98.4491V57.4684C98.4491 57.4684 98.4491 56.101 100.722 56.101H103.218C105.23 56.101 105.267 57.4684 105.267 57.4684V63.5344H105.305ZM115.662 50.1753H123.226V75H115.662V50.1753ZM133.844 68.5835V50.1753H126.318V68.5835V75H133.844H144.015V68.5835H133.844ZM146.512 68.6536V75H158.695C161.191 75 165.476 73.2819 165.625 68.4783V66.0238C165.625 61.9215 162.048 59.5021 158.695 59.5021H152.622V56.5568H164.656V50.1753H153.106C150.126 50.1753 146.139 52.4895 146.139 56.8022V59.0112C146.139 63.324 150.088 65.533 153.106 65.533C161.489 65.568 151.094 65.533 158.844 65.533V68.6185L146.512 68.6536Z" fill="#CC0000"/>
</svg>
