<svg width="122" height="75" viewBox="0 0 122 75" fill="none" xmlns="http://www.w3.org/2000/svg">
<path d="M3.75682 75H46.1552C46.1552 75 38.0512 37.8772 64.8856 22.8448C70.7355 19.9892 89.3586 9.32112 119.843 31.9504C120.809 31.1422 121.721 30.4957 121.721 30.4957C121.721 30.4957 93.8131 2.53233 62.7389 5.65733C47.1212 7.05819 27.9078 21.3362 16.6373 40.194C5.36688 59.0517 3.75682 75 3.75682 75ZM92.0957 8.67457L92.3104 5.06466C91.8274 4.79526 90.4857 4.14871 87.1045 3.17888L86.8899 6.73491C88.6609 7.32759 90.3783 7.97414 92.0957 8.67457ZM86.9972 20.097L86.7825 23.4914C88.5536 23.5453 90.3247 23.7608 92.0957 24.1379L92.3104 20.7974C90.4857 20.4203 88.7146 20.2047 86.9972 20.097ZM67.1397 3.28664H67.6764L66.603 0C64.9393 0 63.2219 0.107759 61.4508 0.323276L62.4705 3.50216C64.0269 3.34052 65.5833 3.28664 67.1397 3.28664ZM69.7158 23.1142L70.9502 26.8319C72.5066 26.0776 74.063 25.431 75.6194 24.9461L74.4387 21.3901C72.6139 21.9289 71.0575 22.5216 69.7158 23.1142ZM45.3502 8.94397L42.9351 5.22629C41.5934 5.92672 40.198 6.68103 38.7489 7.5431L41.2177 11.3147C42.6131 10.4526 43.9548 9.6444 45.3502 8.94397ZM56.3523 33.1897L58.9284 37.069C59.8408 35.722 60.9141 34.4828 62.0949 33.2435L59.6798 29.5797C58.4454 30.7112 57.3183 31.9504 56.3523 33.1897ZM48.5703 50.5388L52.9175 53.9871C53.1322 51.8858 53.5078 49.7845 54.0445 47.6832L50.1804 44.6121C49.4827 46.6056 48.9997 48.5991 48.5703 50.5388ZM25.0633 24.9461L21.2529 21.6056C19.8575 22.9526 18.5158 24.2996 17.2814 25.6466L21.4139 29.2026C22.5409 27.7478 23.7753 26.2931 25.0633 24.9461ZM8.85536 49.0302L2.68344 46.7672C1.66373 49.0841 0.536688 51.778 0 53.2328L6.17192 55.4957C6.86961 53.6638 7.99666 51.0237 8.85536 49.0302ZM47.7653 64.2241C47.8726 67.0797 48.141 69.3966 48.4093 71.0129L54.8496 73.3297C54.3665 71.2284 53.8835 68.8578 53.5615 66.3254L47.7653 64.2241Z" fill="#CC0000"/>
</svg>
