<svg width="95" height="85" viewBox="0 0 95 85" fill="none" xmlns="http://www.w3.org/2000/svg">
<g clip-path="url(#clip0)">
<path d="M0.278687 42.4077C0.278687 49.5087 7.21265 56.1377 18.1446 59.8742C15.9616 70.8642 17.7534 79.7221 23.7381 83.1737C29.8898 86.7212 39.0543 84.2655 47.7526 76.6622C56.2315 83.9586 64.8009 86.8301 70.7801 83.3687C76.9258 79.811 78.7951 70.3523 76.5517 59.0192C87.938 55.2547 94.3071 49.6022 94.3071 42.4077C94.3071 35.4714 87.3603 29.4706 76.5758 25.758C78.9908 13.9565 76.9445 5.31359 70.712 1.7195C64.7033 -1.74542 56.0344 1.27461 47.4308 8.76212C38.4802 0.814723 29.8968 -1.61172 23.6704 1.99285C17.6675 5.46763 15.9545 14.4865 18.1446 25.68C7.58178 29.3628 0.278687 35.4992 0.278687 42.4077Z" fill="white"/>
<path d="M74.2917 29.4448C73.4254 29.1466 72.5278 28.8645 71.6035 28.5977C71.7555 27.9777 71.8949 27.3658 72.0188 26.7642C74.0537 16.8867 72.7232 8.92933 68.1801 6.30942C63.8238 3.79728 56.6994 6.41659 49.5041 12.6785C48.8121 13.2806 48.1183 13.9181 47.4247 14.5862C46.9626 14.1442 46.5013 13.717 46.0411 13.3084C38.5002 6.6128 30.9416 3.79118 26.4029 6.41867C22.0507 8.9381 20.7619 16.4188 22.5936 25.7798C22.7704 26.684 22.9772 27.6073 23.211 28.5461C22.1413 28.8498 21.1085 29.1735 20.1204 29.5179C11.2795 32.6002 5.63327 37.431 5.63327 42.4418C5.63327 47.6169 11.6945 52.8077 20.9029 55.9551C21.6296 56.2035 22.3837 56.4384 23.1608 56.6613C22.9085 57.6767 22.6891 58.6717 22.505 59.6421C20.7585 68.8406 22.1224 76.1446 26.4629 78.6481C30.9463 81.2336 38.4707 78.576 45.7976 72.1715C46.3767 71.6652 46.9579 71.1283 47.5401 70.5656C48.2947 71.2923 49.0482 71.98 49.7976 72.6251C56.8945 78.7323 63.9039 81.1983 68.2404 78.6878C72.7194 76.095 74.175 68.2488 72.2852 58.7026C72.1409 57.9735 71.9729 57.2287 71.7843 56.4706C72.3127 56.3144 72.8314 56.1531 73.3373 55.9855C82.9104 52.8136 89.1389 47.686 89.1389 42.4418C89.1389 37.4129 83.3106 32.5495 74.2917 29.4448Z" fill="#53C1DE"/>
<path d="M72.2153 52.5993C71.7587 52.7505 71.2902 52.8966 70.8128 53.0382C69.756 49.6925 68.3296 46.1349 66.5841 42.4592C68.2498 38.871 69.621 35.3588 70.6482 32.0348C71.5025 32.282 72.3316 32.5427 73.1305 32.8179C80.8579 35.478 85.5716 39.4112 85.5716 42.4418C85.5716 45.6699 80.481 49.8605 72.2153 52.5993ZM68.7856 59.3954C69.6213 63.6166 69.7406 67.433 69.1871 70.4165C68.6898 73.0974 67.6896 74.8848 66.4529 75.6006C63.8212 77.1239 58.1935 75.1438 52.1241 69.921C51.4283 69.3222 50.7275 68.6829 50.0244 68.0063C52.3774 65.433 54.729 62.4413 57.0241 59.1188C61.061 58.7606 64.8749 58.1749 68.3336 57.3754C68.504 58.0625 68.6553 58.7365 68.7856 59.3954ZM34.1022 75.3374C31.5311 76.2454 29.4833 76.2714 28.2454 75.5576C25.6114 74.0384 24.5163 68.174 26.01 60.3074C26.1811 59.4065 26.3847 58.4811 26.6194 57.5352C30.0402 58.2916 33.8262 58.8359 37.8727 59.164C40.1833 62.4151 42.6029 65.4035 45.0412 68.0202C44.5084 68.5345 43.9778 69.0241 43.4501 69.4854C40.2102 72.3175 36.9635 74.3268 34.1022 75.3374ZM22.0567 52.5795C17.9849 51.1878 14.6222 49.3791 12.3172 47.4053C10.2461 45.6316 9.20044 43.8706 9.20044 42.4418C9.20044 39.4011 13.7338 35.5226 21.2946 32.8865C22.212 32.5667 23.1724 32.2652 24.169 31.9821C25.2139 35.3811 26.5847 38.9349 28.2389 42.5286C26.5633 46.1756 25.173 49.786 24.1178 53.2249C23.4074 53.0207 22.719 52.8058 22.0567 52.5795ZM26.0944 25.0947C24.5251 17.0745 25.5674 11.0243 28.1901 9.50606C30.9838 7.88872 37.1614 10.1947 43.6723 15.976C44.0885 16.3455 44.5064 16.7323 44.9254 17.1324C42.4991 19.7376 40.1017 22.7036 37.8117 25.9356C33.8843 26.2996 30.1249 26.8843 26.6685 27.6674C26.4512 26.7932 26.2587 25.9344 26.0944 25.0947ZM62.115 33.9891C61.2887 32.5619 60.4405 31.1684 59.5757 29.813C62.24 30.1498 64.7927 30.5969 67.19 31.144C66.4703 33.4506 65.5733 35.8623 64.5173 38.3346C63.7599 36.8965 62.9587 35.4465 62.115 33.9891ZM47.4259 19.6819C49.0714 21.4645 50.7192 23.4548 52.3399 25.6142C50.7067 25.5371 49.0532 25.4969 47.3861 25.4969C45.7347 25.4969 44.0934 25.5362 42.4703 25.612C44.0927 23.4726 45.7548 21.485 47.4259 19.6819ZM32.6427 34.0138C31.8173 35.445 31.031 36.8871 30.2855 38.3319C29.2466 35.8682 28.3579 33.4456 27.632 31.1063C30.0145 30.5731 32.5552 30.1371 35.2026 29.8067C34.3256 31.1746 33.4704 32.5784 32.6427 34.0135V34.0138ZM35.2788 55.3313C32.5436 55.0261 29.9647 54.6126 27.5828 54.0942C28.3203 51.7131 29.2286 49.2387 30.2895 46.722C31.037 48.1657 31.8264 49.6084 32.6569 51.0428H32.657C33.5029 52.504 34.3793 53.9354 35.2788 55.3313ZM47.5246 65.4532C45.8338 63.6289 44.1474 61.611 42.5003 59.4404C44.0992 59.5032 45.7294 59.5353 47.3861 59.5353C49.0881 59.5353 50.7707 59.4969 52.4269 59.4232C50.8008 61.6329 49.1589 63.6539 47.5246 65.4532ZM64.5514 46.5937C65.6675 49.1377 66.6084 51.5991 67.3554 53.9396C64.9343 54.4919 62.3201 54.9368 59.5659 55.2674C60.4327 53.8937 61.2884 52.4762 62.1293 51.0182C62.9799 49.5432 63.7877 48.0658 64.5514 46.5937ZM59.0392 49.2361C57.7339 51.4994 56.3938 53.66 55.0333 55.6995C52.5553 55.8767 49.9953 55.9679 47.3861 55.9679C44.7874 55.9679 42.2597 55.8872 39.8256 55.7292C38.4102 53.663 37.041 51.496 35.7439 49.2555H35.7442C34.4506 47.0212 33.26 44.768 32.1812 42.5274C33.2597 40.2816 34.4472 38.0259 35.7334 35.7955L35.7331 35.796C37.0227 33.5597 38.3799 31.4033 39.7822 29.35C42.2656 29.1622 44.8123 29.0643 47.3859 29.0643H47.3861C49.9714 29.0643 52.5213 29.163 55.004 29.3523C56.3848 31.3906 57.7328 33.5401 59.0275 35.7767C60.3369 38.0383 61.5396 40.2791 62.6274 42.4767C61.5429 44.7121 60.3428 46.9754 59.0392 49.2361ZM66.3982 9.39993C69.1945 11.0125 70.282 17.5161 68.5251 26.0442C68.413 26.5884 68.2868 27.1427 68.1498 27.7044C64.6853 26.905 60.9232 26.3101 56.9845 25.9406C54.6899 22.6731 52.3121 19.7025 49.9254 17.1308C50.5671 16.5135 51.2079 15.9249 51.846 15.3694C58.0109 10.0043 63.7729 7.88604 66.3982 9.39993Z" fill="white"/>
<path d="M47.3861 34.985C51.5043 34.985 54.8429 38.3234 54.8429 42.4418C54.8429 46.56 51.5043 49.8985 47.3861 49.8985C43.2679 49.8985 39.9293 46.56 39.9293 42.4418C39.9293 38.3234 43.2679 34.985 47.3861 34.985Z" fill="#53C1DE"/>
</g>
<defs>
<clipPath id="clip0">
<rect width="94.6087" height="85" fill="white"/>
</clipPath>
</defs>
</svg>
