<svg width="78" height="75" viewBox="0 0 78 75" fill="none" xmlns="http://www.w3.org/2000/svg">
<g clip-path="url(#clip0)">
<path d="M53.591 52.172C56.4453 51.8715 58.6106 49.3681 58.5122 46.3639C58.4138 43.3598 55.9532 40.9565 53.0005 40.9565H52.8037C49.7525 41.0566 47.3904 43.6602 47.4888 46.7645C47.5872 48.2666 48.1778 49.5684 49.0636 50.4696C45.7172 57.1789 40.5992 62.0856 32.9222 66.1913C27.7058 68.9952 22.2925 69.9965 16.8792 69.2956C12.4502 68.6947 9.00535 66.692 6.84004 63.3874C3.6905 58.4807 3.39523 53.1733 6.05265 47.866C7.9227 44.0608 10.8754 41.2569 12.7454 39.855C12.3517 38.5532 11.7612 36.3501 11.4659 34.7479C-2.80543 45.2624 -1.32908 59.482 3.00154 66.1913C6.2495 71.1982 12.8439 74.3025 20.1272 74.3025C22.0956 74.3025 24.0641 74.1022 26.0326 73.6015C38.6307 71.0981 48.1778 63.4876 53.591 52.172ZM70.9135 39.7548C63.4334 30.8425 52.41 25.9358 39.8118 25.9358H38.237C37.3512 24.1333 35.4812 22.9316 33.4143 22.9316H33.2174C30.1663 23.0318 27.8042 25.6354 27.9026 28.7396C28.001 31.7438 30.4616 34.1471 33.4143 34.1471H33.6111C35.7765 34.047 37.6465 32.645 38.4339 30.7424H40.2055C47.6857 30.7424 54.7721 32.9454 61.1696 37.2514C66.0908 40.5559 69.634 44.8619 71.6025 50.069C73.2757 54.2748 73.1773 58.3805 71.4056 61.8853C68.6498 67.1927 64.0239 70.0967 57.9217 70.0967C53.9847 70.0967 50.2447 68.895 48.2762 67.9938C47.1935 68.9952 45.2251 70.5974 43.8472 71.5987C48.0794 73.6015 52.41 74.703 56.5437 74.703C65.9924 74.703 72.9804 69.3957 75.6378 64.0884C78.4921 58.2804 78.2953 48.2666 70.9135 39.7548ZM20.9146 53.8743C21.013 56.8784 23.4736 59.2818 26.4263 59.2818H26.6231C29.6742 59.1816 32.0364 56.578 31.9379 53.4737C31.8395 50.4696 29.3789 48.0663 26.4263 48.0663H26.2294C26.0326 48.0663 25.7373 48.0663 25.5404 48.1664C21.5051 41.357 19.8319 33.9468 20.4224 25.9358C20.8161 19.9275 22.7846 14.7203 26.2294 10.4144C29.0837 6.70925 34.5954 4.90677 38.3355 4.80663C48.7683 4.60635 53.1974 17.8246 53.4926 23.1319C54.7721 23.4323 56.9374 24.1333 58.4138 24.634C57.2327 8.4116 47.3904 0 37.9418 0C29.0837 0 20.9146 6.50898 17.6666 16.1222C13.1391 28.9399 16.0918 41.2569 21.6035 50.9703C21.1114 51.6713 20.8161 52.7728 20.9146 53.8743Z" fill="#764ABC"/>
</g>
<defs>
<clipPath id="clip0">
<rect width="77.3438" height="75" fill="white"/>
</clipPath>
</defs>
</svg>
