<svg width="108" height="75" viewBox="0 0 108 75" fill="none" xmlns="http://www.w3.org/2000/svg">
<path d="M44.5263 8.16818C47.9771 4.5726 52.7814 2.3427 58.0947 2.3427C65.1578 2.3427 71.3202 6.28122 74.6017 12.128C77.4535 10.8538 80.6101 10.1451 83.9314 10.1451C96.6706 10.1451 106.999 20.5629 106.999 33.4134C106.999 46.2655 96.6706 56.6833 83.9314 56.6833C82.3767 56.6833 80.857 56.5279 79.3877 56.2307C76.4978 61.3855 70.9909 64.8683 64.6701 64.8683C62.0241 64.8683 59.5214 64.2571 57.293 63.1703C54.3635 70.0612 47.5381 74.8929 39.5834 74.8929C31.2994 74.8929 24.2393 69.6512 21.5293 62.3C20.345 62.5515 19.118 62.6826 17.859 62.6826C7.99593 62.6826 0 54.6043 0 44.6376C0 37.9586 3.59253 32.127 8.93026 29.007C7.83132 26.4783 7.22011 23.6875 7.22011 20.7535C7.22011 9.29151 16.5253 6.67935e-06 28.0025 6.67935e-06C34.741 6.67935e-06 40.7296 3.20387 44.5263 8.16818Z" fill="#00A1E0"/>
<path d="M16.4977 38.8376C16.4306 39.0129 16.5221 39.0495 16.5434 39.0799C16.7446 39.2263 16.9489 39.3314 17.1546 39.4488C18.2459 40.028 19.2763 40.1972 20.3539 40.1972C22.5487 40.1972 23.9114 39.0296 23.9114 37.1503V37.1137C23.9114 35.3761 22.3735 34.7451 20.93 34.2894L20.7426 34.2284C19.6543 33.8748 18.7154 33.57 18.7154 32.8536V32.8155C18.7154 32.2028 19.2641 31.7516 20.1146 31.7516C21.0596 31.7516 22.1814 32.0656 22.9039 32.4649C22.9039 32.4649 23.1157 32.6021 23.1935 32.3963C23.2362 32.2866 23.602 31.302 23.6401 31.1953C23.6812 31.0794 23.6081 30.9941 23.5334 30.9483C22.7088 30.4469 21.5687 30.1039 20.389 30.1039L20.1695 30.1055C18.1606 30.1055 16.7583 31.3187 16.7583 33.0578V33.0944C16.7583 34.928 18.3054 35.5225 19.7549 35.937L19.9881 36.0087C21.0444 36.3333 21.9543 36.6123 21.9543 37.3561V37.3927C21.9543 38.0724 21.3629 38.5785 20.4088 38.5785C20.0384 38.5785 18.8571 38.5709 17.5814 37.7646C17.4275 37.6746 17.3375 37.6091 17.2186 37.5374C17.1561 37.4978 16.9992 37.4292 16.9306 37.6365L16.4977 38.8376Z" fill="white"/>
<path d="M48.6293 38.8376C48.5622 39.0129 48.6537 39.0495 48.675 39.0799C48.8762 39.2263 49.0804 39.3314 49.2862 39.4488C50.3775 40.028 51.4079 40.1972 52.4855 40.1972C54.6803 40.1972 56.0429 39.0296 56.0429 37.1503V37.1137C56.0429 35.3761 54.505 34.7451 53.0616 34.2894L52.8741 34.2284C51.7859 33.8748 50.847 33.57 50.847 32.8536V32.8155C50.847 32.2028 51.3957 31.7516 52.2462 31.7516C53.1912 31.7516 54.313 32.0656 55.0354 32.4649C55.0354 32.4649 55.2473 32.6021 55.325 32.3963C55.3677 32.2866 55.7335 31.302 55.7716 31.1953C55.8128 31.0794 55.7396 30.9941 55.6649 30.9483C54.8404 30.4469 53.7003 30.1039 52.5205 30.1039L52.3011 30.1055C50.2922 30.1055 48.8899 31.3187 48.8899 33.0578V33.0944C48.8899 34.928 50.437 35.5225 51.8865 35.937L52.1197 36.0087C53.1759 36.3333 54.0874 36.6123 54.0874 37.3561V37.3927C54.0874 38.0724 53.4945 38.5785 52.5404 38.5785C52.17 38.5785 50.9887 38.5709 49.713 37.7646C49.559 37.6746 49.4676 37.6121 49.3517 37.5374C49.3121 37.5115 49.1262 37.4399 49.0622 37.6365L48.6293 38.8376Z" fill="white"/>
<path d="M70.5646 35.1563C70.5646 36.2187 70.3665 37.0555 69.9763 37.6469C69.5906 38.2322 69.0069 38.5172 68.1929 38.5172C67.3775 38.5172 66.7968 38.2337 66.4173 37.6469C66.0332 37.057 65.8381 36.2187 65.8381 35.1563C65.8381 34.0955 66.0332 33.2602 66.4173 32.675C66.7968 32.0958 67.3775 31.8138 68.1929 31.8138C69.0069 31.8138 69.5906 32.0958 69.9778 32.675C70.3665 33.2602 70.5646 34.0955 70.5646 35.1563ZM72.3967 33.1871C72.2168 32.5789 71.9364 32.0424 71.563 31.5958C71.1895 31.1477 70.717 30.788 70.1561 30.5258C69.5967 30.2652 68.9352 30.1326 68.1929 30.1326C67.4491 30.1326 66.7876 30.2652 66.2283 30.5258C65.6673 30.788 65.1948 31.1477 64.8199 31.5958C64.448 32.0439 64.1675 32.5805 63.9862 33.1871C63.8078 33.7922 63.7179 34.4537 63.7179 35.1563C63.7179 35.859 63.8078 36.522 63.9862 37.1256C64.1675 37.7322 64.4465 38.2688 64.8214 38.7169C65.1948 39.165 65.6689 39.5232 66.2283 39.7777C66.7892 40.0322 67.4491 40.1618 68.1929 40.1618C68.9352 40.1618 69.5952 40.0322 70.1561 39.7777C70.7155 39.5232 71.1895 39.165 71.563 38.7169C71.9364 38.2703 72.2168 37.7338 72.3967 37.1256C72.5765 36.5205 72.6665 35.8575 72.6665 35.1563C72.6665 34.4552 72.5765 33.7922 72.3967 33.1871Z" fill="white"/>
<path fill-rule="evenodd" clip-rule="evenodd" d="M87.4416 38.2336C87.3806 38.0552 87.2084 38.1223 87.2084 38.1223C86.9416 38.2244 86.6581 38.3189 86.3564 38.3662C86.05 38.4134 85.7132 38.4378 85.3519 38.4378C84.4648 38.4378 83.7607 38.1741 83.2562 37.6528C82.7501 37.1316 82.4666 36.2887 82.4697 35.1486C82.4727 34.1106 82.7227 33.3302 83.1723 32.7358C83.6189 32.1444 84.2987 31.8411 85.2056 31.8411C85.9616 31.8411 86.5377 31.9279 87.1413 32.1185C87.1413 32.1185 87.2861 32.181 87.3547 31.992C87.5147 31.5469 87.6336 31.2283 87.8043 30.7391C87.8531 30.6004 87.7342 30.5409 87.6915 30.5242C87.4538 30.4312 86.8929 30.2803 86.4691 30.2163C86.0729 30.1553 85.6095 30.1233 85.0943 30.1233C84.3246 30.1233 83.6387 30.2544 83.0519 30.5165C82.4666 30.7772 81.9697 31.1369 81.5765 31.585C81.1833 32.0331 80.8845 32.5696 80.6848 33.1763C80.4867 33.7814 80.3861 34.4459 80.3861 35.1486C80.3861 36.6682 80.7961 37.8967 81.6055 38.796C82.4163 39.6983 83.6342 40.1571 85.2224 40.1571C86.1613 40.1571 87.1246 39.9666 87.8165 39.6937C87.8165 39.6937 87.9491 39.6297 87.8912 39.4758L87.4416 38.2336Z" fill="white"/>
<path fill-rule="evenodd" clip-rule="evenodd" d="M90.6471 34.1386C90.734 33.5488 90.8971 33.058 91.1486 32.6754C91.5281 32.0947 92.1073 31.7761 92.9212 31.7761C93.7351 31.7761 94.2732 32.0962 94.6588 32.6754C94.9149 33.058 95.0261 33.5701 95.0703 34.1386H90.6471ZM96.8155 32.8415C96.6601 32.2547 96.2744 31.6618 96.0214 31.3905C95.6221 30.9607 95.2319 30.6604 94.8448 30.4928C94.3387 30.2763 93.7321 30.133 93.0676 30.133C92.2933 30.133 91.5906 30.2626 91.0206 30.5309C90.449 30.7991 89.9689 31.1649 89.5924 31.6207C89.2159 32.0749 88.9324 32.616 88.7526 33.2302C88.5712 33.8414 88.4797 34.5075 88.4797 35.2101C88.4797 35.925 88.5742 36.5911 88.7617 37.1901C88.9507 37.7937 89.2525 38.3256 89.661 38.7661C90.0679 39.2096 90.5923 39.5572 91.2202 39.7995C91.8436 40.0403 92.6011 40.1653 93.4715 40.1638C95.2624 40.1577 96.2059 39.7584 96.5945 39.5434C96.6631 39.5053 96.7287 39.4383 96.6463 39.2462L96.2409 38.1107C96.1799 37.9415 96.0077 38.004 96.0077 38.004C95.5642 38.1686 94.9332 38.4643 93.4623 38.4613C92.5006 38.4597 91.7872 38.1762 91.3406 37.7327C90.8819 37.2785 90.6578 36.6109 90.6182 35.6689L96.8201 35.675C96.8201 35.675 96.9832 35.672 97 35.5135C97.0061 35.4464 97.2133 34.2392 96.8155 32.8415" fill="white"/>
<path fill-rule="evenodd" clip-rule="evenodd" d="M40.9784 34.1386C41.0668 33.5488 41.2284 33.058 41.4799 32.6754C41.8594 32.0947 42.4386 31.7761 43.2525 31.7761C44.0665 31.7761 44.6045 32.0962 44.9916 32.6754C45.2462 33.058 45.3575 33.5701 45.4017 34.1386H40.9784ZM47.1453 32.8415C46.9899 32.2547 46.6058 31.6618 46.3528 31.3905C45.9534 30.9607 45.5632 30.6604 45.1761 30.4928C44.67 30.2763 44.0634 30.133 43.3989 30.133C42.6261 30.133 41.9219 30.2626 41.3519 30.5309C40.7803 30.7991 40.3002 31.1649 39.9237 31.6207C39.5472 32.0749 39.2637 32.616 39.0839 33.2302C38.904 33.8414 38.811 34.5075 38.811 35.2101C38.811 35.925 38.9055 36.5911 39.093 37.1901C39.282 37.7937 39.5838 38.3256 39.9923 38.7661C40.3992 39.2096 40.9236 39.5572 41.5515 39.7995C42.1749 40.0403 42.9325 40.1653 43.8028 40.1638C45.5937 40.1577 46.5372 39.7584 46.9258 39.5434C46.9944 39.5053 47.06 39.4383 46.9777 39.2462L46.5738 38.1107C46.5113 37.9415 46.339 38.004 46.339 38.004C45.8955 38.1686 45.266 38.4643 43.7921 38.4613C42.8319 38.4597 42.1185 38.1762 41.6719 37.7327C41.2132 37.2785 40.9891 36.6109 40.9495 35.6689L47.1514 35.675C47.1514 35.675 47.3145 35.672 47.3313 35.5135C47.3374 35.4464 47.5447 34.2392 47.1453 32.8415" fill="white"/>
<path d="M27.573 38.1996C27.3306 38.006 27.2971 37.9572 27.2148 37.8322C27.0929 37.6417 27.0304 37.3704 27.0304 37.0259C27.0304 36.4803 27.2102 36.0885 27.5837 35.8249C27.5791 35.8264 28.1171 35.36 29.3822 35.3767C30.2708 35.3889 31.0649 35.52 31.0649 35.52V38.3398H31.0664C31.0664 38.3398 30.2784 38.509 29.3914 38.5623C28.1293 38.6385 27.5684 38.198 27.573 38.1996ZM30.0407 33.8419C29.7892 33.8236 29.463 33.8129 29.0728 33.8129C28.5409 33.8129 28.0272 33.88 27.5456 34.0095C27.0609 34.1391 26.6249 34.3418 26.25 34.6101C25.8735 34.8799 25.5702 35.2243 25.3507 35.6328C25.1312 36.0413 25.02 36.5229 25.02 37.0625C25.02 37.6112 25.1145 38.0883 25.3035 38.4785C25.4925 38.8702 25.7653 39.1964 26.1128 39.4479C26.4573 39.6994 26.8825 39.8838 27.3764 39.9951C27.8626 40.1063 28.4143 40.1627 29.0179 40.1627C29.6535 40.1627 30.2876 40.1109 30.9018 40.0057C31.51 39.9021 32.2568 39.7512 32.4641 39.7039C32.6699 39.6552 32.8985 39.5927 32.8985 39.5927C33.0525 39.5546 33.0403 39.39 33.0403 39.39L33.0372 33.7184C33.0372 32.4747 32.705 31.5525 32.0511 30.981C31.4002 30.4109 30.4415 30.1228 29.2024 30.1228C28.7375 30.1228 27.9891 30.1868 27.541 30.2768C27.541 30.2768 26.186 30.5389 25.6281 30.9749C25.6281 30.9749 25.5062 31.0511 25.5732 31.2218L26.0122 32.4015C26.0671 32.5539 26.2149 32.5021 26.2149 32.5021C26.2149 32.5021 26.2622 32.4838 26.317 32.4518C27.5105 31.8025 29.0195 31.8223 29.0195 31.8223C29.6901 31.8223 30.2053 31.9564 30.5528 32.2232C30.8912 32.4823 31.0634 32.874 31.0634 33.7001V33.9623C30.5299 33.8861 30.0407 33.8419 30.0407 33.8419Z" fill="white"/>
<path fill-rule="evenodd" clip-rule="evenodd" d="M80.062 30.6463C80.1093 30.506 80.0102 30.439 79.969 30.4237C79.8639 30.3826 79.3365 30.2713 78.9295 30.2454C78.1507 30.1981 77.7178 30.3292 77.3307 30.503C76.9466 30.6767 76.5198 30.9572 76.282 31.2758V30.5213C76.282 30.4161 76.2073 30.3323 76.1037 30.3323H74.514C74.4103 30.3323 74.3356 30.4161 74.3356 30.5213V39.7716C74.3356 39.8753 74.421 39.9606 74.5246 39.9606H76.154C76.2576 39.9606 76.3415 39.8753 76.3415 39.7716V35.1503C76.3415 34.5299 76.4101 33.9111 76.5472 33.5224C76.6814 33.1383 76.8643 32.8304 77.0898 32.6094C77.3169 32.3899 77.5745 32.236 77.8565 32.1491C78.1446 32.0607 78.4631 32.0318 78.6887 32.0318C79.0134 32.0318 79.37 32.1156 79.37 32.1156C79.4889 32.1293 79.556 32.0561 79.5956 31.9479C79.7023 31.6644 80.0041 30.8154 80.062 30.6463Z" fill="white"/>
<path fill-rule="evenodd" clip-rule="evenodd" d="M64.768 26.359C64.5698 26.298 64.3899 26.2569 64.1552 26.2127C63.9174 26.17 63.6339 26.1487 63.3123 26.1487C62.1905 26.1487 61.3065 26.4657 60.6862 27.0906C60.0689 27.7125 59.6497 28.659 59.4394 29.9043L59.3631 30.3234H57.9548C57.9548 30.3234 57.7841 30.3173 57.7475 30.5033L57.5173 31.7943C57.5006 31.9162 57.5539 31.994 57.7185 31.994H59.0888L57.6987 39.7552C57.5905 40.3801 57.4655 40.8937 57.3268 41.2839C57.1912 41.668 57.0586 41.9561 56.8939 42.1664C56.7354 42.3676 56.5861 42.517 56.3269 42.6039C56.1136 42.6755 55.8666 42.7091 55.5969 42.7091C55.4475 42.7091 55.2478 42.6847 55.1 42.6542C54.9536 42.6252 54.8759 42.5932 54.7646 42.546C54.7646 42.546 54.6046 42.485 54.5406 42.645C54.4903 42.7776 54.1245 43.7821 54.0803 43.9056C54.0376 44.029 54.0986 44.125 54.1763 44.154C54.3592 44.218 54.4949 44.2607 54.7433 44.3201C55.0878 44.4009 55.3789 44.4055 55.6517 44.4055C56.2218 44.4055 56.7431 44.3247 57.1744 44.1692C57.6073 44.0122 57.9853 43.7394 58.3206 43.3706C58.6818 42.9712 58.9089 42.5536 59.1254 41.982C59.3403 41.4181 59.5247 40.7169 59.671 39.9L61.0687 31.994H63.1111C63.1111 31.994 63.2834 32.0001 63.3184 31.8126L63.5501 30.5231C63.5654 30.3996 63.5135 30.3234 63.3474 30.3234H61.3644C61.3751 30.2792 61.465 29.5812 61.6921 28.9242C61.7897 28.6453 61.9726 28.4182 62.1265 28.2627C62.2789 28.1103 62.4542 28.0021 62.6463 27.9396C62.8429 27.8756 63.0669 27.8451 63.3123 27.8451C63.4983 27.8451 63.6827 27.8664 63.8214 27.8954C64.0135 27.9365 64.0882 27.9579 64.1385 27.9731C64.3412 28.0341 64.3686 27.9747 64.4082 27.8771L64.8823 26.5754C64.931 26.4352 64.8106 26.3758 64.768 26.359Z" fill="white"/>
<path fill-rule="evenodd" clip-rule="evenodd" d="M37.0619 39.7721C37.0619 39.8757 36.9872 39.9595 36.8835 39.9595H35.2389C35.1353 39.9595 35.0621 39.8757 35.0621 39.7721V26.5359C35.0621 26.4323 35.1353 26.3485 35.2389 26.3485H36.8835C36.9872 26.3485 37.0619 26.4323 37.0619 26.5359V39.7721Z" fill="white"/>
</svg>
