<svg width="75" height="56" viewBox="0 0 35 24" fill="none" xmlns="http://www.w3.org/2000/svg">
<path d="M14.5678 2.63094C15.6955 1.48035 17.2654 0.766786 19.0017 0.766786C21.3098 0.766786 23.3235 2.02711 24.3959 3.89809C25.3278 3.49034 26.3593 3.26354 27.4446 3.26354C31.6075 3.26354 34.9825 6.59726 34.9825 10.7094C34.9825 14.8221 31.6075 18.1558 27.4446 18.1558C26.9366 18.1558 26.44 18.106 25.9598 18.0109C25.0155 19.6605 23.2159 20.775 21.1504 20.775C20.2857 20.775 19.4679 20.5794 18.7397 20.2316C17.7824 22.4367 15.552 23.9828 12.9525 23.9828C10.2455 23.9828 7.9384 22.3055 7.05282 19.9531C6.66582 20.0336 6.26486 20.0755 5.85345 20.0755C2.6304 20.0755 0.0174866 17.4905 0.0174866 14.3012C0.0174866 12.1639 1.19145 10.2978 2.93572 9.29936C2.57661 8.49019 2.37688 7.59713 2.37688 6.65823C2.37688 2.9904 5.41764 0.0171242 9.16816 0.0171242C11.3702 0.0171242 13.3271 1.04236 14.5678 2.63094Z" fill="#00A1E0"/>
</svg>
