<svg width="75" height="75" viewBox="0 0 75 75" fill="none" xmlns="http://www.w3.org/2000/svg">
<path d="M27.3961 0.0557098C23.2741 0.0557098 19.9061 3.42366 19.9061 7.54564C19.9061 11.6676 23.2741 15.0356 27.3961 15.0356H34.886V7.54564C34.886 3.42366 31.5683 0.0557098 27.3961 0.0557098ZM27.3961 20.0121H7.48993C3.36795 20.0121 0 23.3801 0 27.502C0 31.624 3.36795 34.992 7.48993 34.992H27.4463C31.5683 34.992 34.9363 31.624 34.9363 27.502C34.886 23.3801 31.5683 20.0121 27.3961 20.0121Z" fill="#36C5F0"/>
<path d="M74.7989 27.4966C74.7989 23.3746 71.4309 20.0067 67.309 20.0067C63.187 20.0067 59.819 23.3746 59.819 27.4966V34.9865H67.309C71.4309 35.0368 74.7989 31.6688 74.7989 27.4966ZM54.8425 27.4966V7.48993C54.8425 3.36795 51.4745 0 47.3526 0C43.2306 0 39.8626 3.36795 39.8626 7.48993V27.4966C39.8626 31.6186 43.2306 34.9865 47.3526 34.9865C51.5248 35.0368 54.8425 31.6688 54.8425 27.4966Z" fill="#2EB67D"/>
<path d="M47.3526 75C51.4745 75 54.8425 71.632 54.8425 67.5101C54.8425 63.3881 51.4745 60.0201 47.3526 60.0201H39.8626V67.5101C39.8626 71.632 43.2306 75 47.3526 75ZM47.3526 54.9933H67.309C71.4309 54.9933 74.7989 51.6254 74.7989 47.5034C74.7989 43.3814 71.4309 40.0135 67.309 40.0135H47.3526C43.2306 40.0135 39.8626 43.3814 39.8626 47.5034C39.8626 51.6254 43.2306 54.9933 47.3526 54.9933Z" fill="#ECB22E"/>
<path d="M0 47.5034C0 51.6254 3.36795 54.9933 7.48993 54.9933C11.6119 54.9933 14.9799 51.6254 14.9799 47.5034V40.0135H7.48993C3.31769 40.0135 0 43.3814 0 47.5034ZM19.9564 47.5034V67.5101C19.9564 71.632 23.3243 75 27.4463 75C31.5683 75 34.9363 71.632 34.9363 67.5101V47.5034C34.9363 43.3814 31.5683 40.0135 27.4463 40.0135C23.2741 40.0135 19.9564 43.3814 19.9564 47.5034Z" fill="#E01E5A"/>
</svg>
