<?xml version="1.0" encoding="UTF-8" standalone="no"?>
<svg
  xmlns="http://www.w3.org/2000/svg"
  viewBox="0 0 504.92133 349.82266"
  height="349.82266"
  width="504.92133"
  id="svg2"
  version="1.1">
  <defs id="defs6">
    <clipPath
       id="clipPath18"
       clipPathUnits="userSpaceOnUse"><path
         id="path16"
         d="M 0,262.367 H 378.691 V 0 H 0 Z" /></clipPath></defs><g
     transform="matrix(1.3333333,0,0,-1.3333333,0,349.82267)"
     id="g10"><g
       id="g12"><g
         clip-path="url(#clipPath18)"
         id="g14"><g
           transform="translate(298.9692,115.9951)"
           id="g20"><path
             id="path22"
             style="fill:#2b2b2a;fill-opacity:1;fill-rule:nonzero;stroke:none"
             d="M 0,0 -109.624,-57.892 -219.318,0.037 c 0.022,-29.622 0.002,-59.368 -0.135,-73.042 -0.276,-27.598 53.23,-42.49 109.829,-42.49 54.032,0 110.181,14.892 109.828,42.49 C 0.004,-57.376 -0.029,-28.476 0,0" /></g><g
           transform="translate(298.9692,115.9951)"
           id="g24"><path
             id="path26"
             style="fill:none;stroke:#2b2b2a;stroke-width:1;stroke-linecap:butt;stroke-linejoin:miter;stroke-miterlimit:10;stroke-dasharray:none;stroke-opacity:1"
             d="M 0,0 -109.624,-57.892 -219.318,0.037 c 0.022,-29.622 0.002,-59.368 -0.135,-73.042 -0.276,-27.598 53.23,-42.49 109.829,-42.49 54.032,0 110.181,14.892 109.828,42.49 C 0.004,-57.376 -0.029,-28.476 0,0 Z" /></g><g
           transform="translate(27.3882,52.3633)"
           id="g28"><path
             id="path30"
             style="fill:#2b2b2a;fill-opacity:1;fill-rule:nonzero;stroke:none"
             d="M 0,0 7.739,15.479 15.477,0 V 82.885 L 0,91.059 Z" /></g><g
           transform="translate(27.3882,52.3633)"
           id="g32"><path
             id="path34"
             style="fill:none;stroke:#2b2b2a;stroke-width:1;stroke-linecap:butt;stroke-linejoin:miter;stroke-miterlimit:10;stroke-dasharray:none;stroke-opacity:1"
             d="M 0,0 7.739,15.479 15.477,0 V 82.885 L 0,91.059 Z" /></g><g
           transform="translate(189.3452,261.8027)"
           id="g36"><path
             id="path38"
             style="fill:#2b2b2a;fill-opacity:1;fill-rule:nonzero;stroke:none"
             d="m 0,0 -188.271,-98.581 26.314,-13.896 15.477,-8.174 47.986,-25.341 98.493,-52.014 98.431,51.981 89.841,47.444 z" /></g><g
           transform="translate(189.3452,261.8027)"
           id="g40"><path
             id="path42"
             style="fill:none;stroke:#2b2b2a;stroke-width:1;stroke-linecap:butt;stroke-linejoin:miter;stroke-miterlimit:10;stroke-dasharray:none;stroke-opacity:1"
             d="m 0,0 -188.271,-98.581 26.314,-13.896 15.477,-8.174 47.986,-25.341 98.493,-52.014 98.431,51.981 89.841,47.444 z" /></g></g></g></g></svg>