<svg width="8" height="8" viewBox="0 0 8 8" fill="none" xmlns="http://www.w3.org/2000/svg">
<g clip-path="url(#clip0)">
<path d="M3.66469 0.627756C5.10767 0.407522 6.55337 0.200054 7.9991 -7.73377e-05C8.00001 1.26382 7.9991 2.5268 8.00001 3.79067C6.55522 3.79616 5.11041 3.81809 3.66469 3.82267C3.66377 2.75708 3.66377 1.69243 3.66469 0.627756Z" fill="#4072C1"/>
<path d="M0 1.1377C1.08658 0.970454 2.17775 0.826069 3.26891 0.689892C3.26982 1.73811 3.26982 2.78542 3.27074 3.83364C2.18049 3.83273 1.09025 3.84918 0 3.84643V1.1377Z" fill="#4072C1"/>
<path d="M0 4.17633C1.08933 4.17266 2.17866 4.19003 3.268 4.18821C3.268 5.23916 3.27074 6.29011 3.26891 7.34107C2.18049 7.18023 1.09025 7.0395 0 6.89236V4.17633Z" fill="#4072C1"/>
<path d="M3.65828 4.21837C5.10583 4.21837 6.55247 4.21837 7.99911 4.21837C8.00094 5.47862 7.99911 6.73884 7.99911 8C6.55615 7.78433 5.11042 7.58418 3.6647 7.3886C3.66287 6.33217 3.66013 5.27573 3.65828 4.21837Z" fill="#4072C1"/>
</g>
<defs>
<clipPath id="clip0">
<rect width="8" height="8" fill="white"/>
</clipPath>
</defs>
</svg>
