<svg width="75" height="75" viewBox="0 0 75 75" fill="none" xmlns="http://www.w3.org/2000/svg">
<path d="M34.3561 5.88584C47.8839 3.82117 61.4373 1.87618 74.9908 -3.79265e-05C74.9994 11.8488 74.9908 23.6892 74.9994 35.5379C61.4546 35.5894 47.9096 35.7949 34.3561 35.8379C34.3475 25.8481 34.3475 15.8671 34.3561 5.88584" fill="#4072C1"/>
<path d="M0 10.6666C10.1866 9.09871 20.4162 7.74512 30.6457 6.46847C30.6543 16.2954 30.6543 26.1138 30.6629 35.9408C20.4419 35.9323 10.221 36.0865 0 36.0607V10.6666Z" fill="#4072C1"/>
<path d="M0 39.1534C10.2124 39.119 20.4248 39.2818 30.6371 39.2647C30.6371 49.1173 30.6629 58.9699 30.6457 68.8225C20.4419 67.3147 10.221 65.9953 0 64.6159V39.1534Z" fill="#4072C1"/>
<path d="M34.2959 39.5476C47.8666 39.5476 61.4287 39.5476 74.9908 39.5476C75.0079 51.3623 74.9908 63.1767 74.9908 75C61.4631 72.9781 47.9096 71.1017 34.3561 69.2682C34.3389 59.3643 34.3132 49.4602 34.2959 39.5476Z" fill="#4072C1"/>
</svg>
